<?xml version="1.0" encoding="UTF-8"?>
<svg width="375px" height="630px" viewBox="0 0 375 630" version="1.1" xmlns="http://www.w3.org/2000/svg" xmlns:xlink="http://www.w3.org/1999/xlink">
    <!-- Generator: Sketch 46.2 (44496) - http://www.bohemiancoding.com/sketch -->
    <title>Group</title>
    <desc>Created with Sketch.</desc>
    <defs>
        <rect id="path-1" x="0" y="0" width="375" height="667"></rect>
        <linearGradient x1="65.085249%" y1="9.93217729%" x2="22.5624748%" y2="97.0048778%" id="linearGradient-3">
            <stop stop-color="#2FBA9B" offset="0%"></stop>
            <stop stop-color="#50E3C2" offset="100%"></stop>
        </linearGradient>
        <linearGradient x1="50%" y1="0%" x2="34.6729551%" y2="100%" id="linearGradient-4">
            <stop stop-color="#F38888" offset="0%"></stop>
            <stop stop-color="#E35050" offset="100%"></stop>
        </linearGradient>
        <path d="M285.810268,182.188419 L329.613611,136.60023 L329.613611,136.60023 C340.327827,125.449444 358.052913,125.095534 369.203699,135.809751 C370.647822,137.197334 371.938907,138.735849 373.054789,140.398884 L418.455791,208.061449 L418.455791,208.061449 C426.189972,219.587945 424.311797,235.040914 414.04169,244.379145 L346.779631,305.538064 L346.779631,305.538064 C335.338199,315.941338 317.629567,315.099744 307.226293,303.658312 C304.196901,300.326612 302.015752,296.313414 300.867859,291.959131 L278.925573,208.725835 L278.925573,208.725835 C276.436663,199.284695 279.045488,189.228841 285.810268,182.188419 Z" id="path-5"></path>
        <filter x="-4.8%" y="-2.7%" width="109.6%" height="107.6%" filterUnits="objectBoundingBox" id="filter-6">
            <feOffset dx="0" dy="2" in="SourceAlpha" result="shadowOffsetOuter1"></feOffset>
            <feGaussianBlur stdDeviation="2" in="shadowOffsetOuter1" result="shadowBlurOuter1"></feGaussianBlur>
            <feColorMatrix values="0 0 0 0 0   0 0 0 0 0   0 0 0 0 0  0 0 0 0.148720562 0" type="matrix" in="shadowBlurOuter1"></feColorMatrix>
        </filter>
        <linearGradient x1="50%" y1="0%" x2="50%" y2="100%" id="linearGradient-7">
            <stop stop-color="#88F3E2" offset="0%"></stop>
            <stop stop-color="#50E3C2" offset="100%"></stop>
        </linearGradient>
    </defs>
    <g id="Page-1" stroke="none" stroke-width="1" fill="none" fill-rule="evenodd">
        <g id="iPhone-7-Copy-4" transform="translate(0.000000, -37.000000)">
            <g id="Group">
                <mask id="mask-2" fill="white">
                    <use xlink:href="#path-1"></use>
                </mask>
                <g id="Mask"></g>
                <g mask="url(#mask-2)">
                    <g transform="translate(-26.000000, 37.000000)">
                        <path d="M19.9891687,41.2678768 L79.5647431,4.77309386 L79.5647431,4.77309386 C90.0235897,-1.63378242 103.434812,-0.487975751 112.655251,7.60022801 L164.229285,52.8411651 L164.229285,52.8411651 C175.854406,63.0387645 177.01164,80.7295744 166.814041,92.3546949 C164.59654,94.8826148 161.941812,96.9904194 158.977019,98.5771435 L72.4786521,144.870111 L72.4786521,144.870111 C58.8444892,152.166964 41.8765483,147.029559 34.5796954,133.395396 C34.2700309,132.816788 33.9808041,132.227472 33.712551,131.62854 L9.06130921,76.5894189 L9.06130921,76.5894189 C3.30736706,63.7425237 7.98571468,48.6209482 19.9891687,41.2678768 Z" id="Path-3" fill="url(#linearGradient-3)" fill-rule="evenodd"></path>
                        <g id="Path-3-Copy" fill="none">
                            <use fill="black" fill-opacity="1" filter="url(#filter-6)" xlink:href="#path-5"></use>
                            <use fill="url(#linearGradient-4)" fill-rule="evenodd" xlink:href="#path-5"></use>
                        </g>
                        <path d="M7.81026769,421.61966 L18.346678,410.653925 L18.346678,410.653925 C27.8819811,400.730089 43.6567301,400.41512 53.5805661,409.950423 C54.8657883,411.185327 56.0148116,412.554556 57.0079103,414.034602 L68.8725458,431.716848 L68.8725458,431.716848 C76.606726,443.243344 74.7285515,458.696313 64.4584445,468.034544 L47.2144125,483.713909 L47.2144125,483.713909 C37.2370328,492.785973 21.794407,492.05207 12.7223422,482.074691 C10.0805926,479.169317 8.17854483,475.66965 7.17753671,471.872543 L0.925572746,448.157076 L0.925572746,448.157076 C-1.56333743,438.715936 1.04548783,428.660083 7.81026769,421.61966 Z" id="Path-3-Copy-2" fill="url(#linearGradient-7)" fill-rule="evenodd"></path>
                        <path d="M276.963652,581.445802 L329.912663,526.339289 L329.912663,526.339289 C340.626879,515.188503 358.351965,514.834593 369.502751,525.54881 C370.946874,526.936393 372.237959,528.474908 373.353841,530.137943 L427.837022,611.335969 L427.837022,611.335969 C435.571202,622.862465 433.693028,638.315434 423.422921,647.653665 L342.311717,721.405102 L342.311717,721.405102 C330.870285,731.808376 313.161652,730.966782 302.758379,719.52535 C299.728987,716.19365 297.547838,712.180452 296.399945,707.826169 L270.078957,607.983218 L270.078957,607.983218 C267.590046,598.542078 270.198872,588.486225 276.963652,581.445802 Z" id="Path-3-Copy-4" fill="#107EFF" fill-rule="evenodd" transform="translate(350.870160, 623.213906) rotate(-41.000000) translate(-350.870160, -623.213906) "></path>
                        <path d="M81.3408926,275.091828 L91.877303,264.126093 L91.877303,264.126093 C101.412606,254.202257 117.187355,253.887288 127.111191,263.422591 C128.396413,264.657495 129.545437,266.026724 130.538535,267.50677 L142.403171,285.189016 L142.403171,285.189016 C150.137351,296.715512 148.259176,312.168481 137.989069,321.506712 L120.745037,337.186077 L120.745037,337.186077 C110.767658,346.258141 95.3250319,345.524239 86.2529672,335.546859 C83.6112175,332.641485 81.7091698,329.141818 80.7081617,325.344711 L74.4561977,301.629244 L74.4561977,301.629244 C71.9672875,292.188104 74.5761128,282.132251 81.3408926,275.091828 Z" id="Path-3-Copy-3" fill="#50E3C2" fill-rule="evenodd" transform="translate(110.341854, 300.004938) rotate(-41.000000) translate(-110.341854, -300.004938) "></path>
                    </g>
                </g>
            </g>
        </g>
    </g>
</svg>