<?xml version="1.0" encoding="UTF-8"?>
<svg width="126px" height="72px" viewBox="0 0 126 72" version="1.1" xmlns="http://www.w3.org/2000/svg" xmlns:xlink="http://www.w3.org/1999/xlink">
    <!-- Generator: Sketch 46.2 (44496) - http://www.bohemiancoding.com/sketch -->
    <title>home_logo</title>
    <desc>Created with Sketch.</desc>
    <defs></defs>
    <g id="Page-1" stroke="none" stroke-width="1" fill="none" fill-rule="evenodd">
        <g id="iPhone-7-Copy-6" transform="translate(-125.000000, -224.000000)">
            <g id="hedaer" transform="translate(124.000000, 62.000000)">
                <g id="home_logo" transform="translate(1.000000, 162.000000)">
                    <g id="no" transform="translate(54.870968, 0.000000)" stroke="#C42121">
                        <path d="M6.55864203,16.7588129 C2.94980771,22.3132842 1,28.7930007 1,35.5645161 C1,54.6539713 16.475061,70.1290323 35.5645161,70.1290323 C54.6539713,70.1290323 70.1290323,54.6539713 70.1290323,35.5645161 C70.1290323,16.475061 54.6539713,1 35.5645161,1 C25.971377,1 17.0074269,4.92629677 10.5832738,11.6700665 L6.55864203,16.7588129 Z" id="Oval" stroke-width="2" transform="translate(35.564516, 35.564516) rotate(-1.721802) translate(-35.564516, -35.564516) "></path>
                        <g id="Group" transform="translate(23.709677, 23.709677)" stroke-width="4" stroke-linecap="round">
                            <path d="M0,22.8939992 L22.8939992,-3.55271368e-15" id="Path-2"></path>
                            <path d="M0,22.8939992 L22.8939992,-3.55271368e-15" id="Path-2-Copy" transform="translate(11.447000, 11.447000) scale(-1, 1) translate(-11.447000, -11.447000) "></path>
                        </g>
                    </g>
                    <g id="yes-copy" stroke="#34B397">
                        <path d="M64.7148491,54.145989 C68.2320726,48.6400742 70.1290323,42.2439172 70.1290323,35.5645161 C70.1290323,16.475061 54.6539713,1 35.5645161,1 C16.475061,1 1,16.475061 1,35.5645161 C1,54.6539713 16.475061,70.1290323 35.5645161,70.1290323 C45.4236268,70.1290323 54.6133385,65.980502 61.0695894,58.8983072 L64.7148491,54.145989 Z" id="Oval" stroke-width="2"></path>
                        <polyline id="Path-2" stroke-width="4" stroke-linecap="round" points="20.3225806 35.9587749 29.0804084 46.9959677 52.0766129 24.1330645"></polyline>
                    </g>
                </g>
            </g>
        </g>
    </g>
</svg>