<?xml version="1.0" encoding="UTF-8"?>
<svg width="64px" height="67px" viewBox="0 0 64 67" version="1.1" xmlns="http://www.w3.org/2000/svg" xmlns:xlink="http://www.w3.org/1999/xlink">
    <!-- Generator: Sketch 46.2 (44496) - http://www.bohemiancoding.com/sketch -->
    <title>tris copy 2</title>
    <desc>Created with Sketch.</desc>
    <defs></defs>
    <g id="Page-1" stroke="none" stroke-width="1" fill="none" fill-rule="evenodd" opacity="0.3">
        <g id="iPhone-7-Copy-4" transform="translate(-167.000000, -9.000000)" fill="#FFFFFF">
            <g id="tris" transform="translate(160.000000, 0.000000)">
                <polygon id="Triangle-2" transform="translate(12.345709, 36.345709) rotate(-45.000000) translate(-12.345709, -36.345709) " points="12.3457092 29.7146669 20.3457092 42.9767515 4.3457092 42.9767515"></polygon>
                <polygon id="Triangle-2-Copy-5" transform="translate(23.002093, 59.997907) rotate(-45.000000) translate(-23.002093, -59.997907) " points="23.002093 55.5126256 28.4133466 64.4831883 17.5908395 64.4831883"></polygon>
                <polygon id="Triangle-2-Copy-6" transform="translate(60.345709, 65.345709) rotate(-45.000000) translate(-60.345709, -65.345709) " points="60.3457092 58.7146669 68.3457092 71.9767515 52.3457092 71.9767515"></polygon>
                <polygon id="Triangle-2-Copy" transform="translate(40.157159, 46.802061) rotate(-60.000000) translate(-40.157159, -46.802061) " points="40.157159 42.3989012 45.4693369 51.2052201 34.8449812 51.2052201"></polygon>
                <polygon id="Triangle-2-Copy-3" transform="translate(14.359991, 12.584229) rotate(-60.000000) translate(-14.359991, -12.584229) " points="14.359991 9.6167326 17.9401181 15.551726 10.779864 15.551726"></polygon>
                <polygon id="Triangle-2-Copy-2" transform="translate(66.403326, 33.054476) rotate(-15.000000) translate(-66.403326, -33.054476) " points="66.4033261 30.6647636 69.286387 35.4441883 63.5202652 35.4441883"></polygon>
                <polygon id="Triangle-2-Copy-4" transform="translate(57.243724, 14.742651) rotate(-330.000000) translate(-57.243724, -14.742651) " points="57.2437244 8.11160879 65.2437244 21.3736933 49.2437244 21.3736933"></polygon>
            </g>
        </g>
    </g>
</svg>